Coordinates
version=1
nRows=38
nColumns=12
inDegrees=yes

Units are S.I. units (second, meters, Newtons, ...)
Angles are in degrees

endheader
time	SC_y	SC_z	SC_x	AC_y	AC_z	AC_x	GH_y	GH_z	GH_yy	EL_x	PS_y
       0.0              -12.38          30.27          54.69          56.35          -18.1         -15.76          128.5          37.45          124.7          27.14          87.04
    0.0418              -12.38          30.27          54.69          56.35         -18.09         -15.76          128.5          37.44          124.7          27.16          87.04
   0.08359              -12.39          30.26          54.68          56.34         -18.09         -15.76          128.5          37.43          124.7          27.17          87.05
    0.1254              -12.39          30.26          54.67          56.34         -18.09         -15.76          128.5          37.42          124.7          27.18          87.06
    0.1672              -12.39          30.25          54.66          56.34         -18.09         -15.76          128.4          37.41          124.7           27.2          87.07
     0.209               -12.4          30.25          54.65          56.34         -18.09         -15.76          128.4           37.4          124.7          27.22          87.08
    0.2508               -12.4          30.24          54.64          56.34         -18.08         -15.75          128.4          37.39          124.7          27.23           87.1
    0.2926              -12.41          30.23          54.63          56.34         -18.08         -15.75          128.3          37.38          124.7          27.25          87.11
    0.3344              -12.41          30.22          54.62          56.33         -18.08         -15.75          128.3          37.37          124.6          27.27          87.12
    0.3762              -12.42          30.22          54.61          56.33         -18.07         -15.75          128.2          37.36          124.6           27.3          87.14
     0.418              -12.42          30.21          54.59          56.33         -18.07         -15.75          128.2          37.34          124.6          27.32          87.15
    0.4598              -12.43           30.2          54.58          56.33         -18.07         -15.75          128.2          37.33          124.6          27.34          87.17
    0.5016              -12.44          30.19          54.56          56.32         -18.06         -15.75          128.1          37.31          124.6          27.37          87.19
    0.5434              -12.44          30.18          54.55          56.32         -18.06         -15.75          128.0           37.3          124.6           27.4          87.21
    0.5852              -12.45          30.16          54.53          56.32         -18.06         -15.75          128.0          37.28          124.6          27.43          87.23
     0.627              -12.46          30.15          54.51          56.32         -18.05         -15.74          127.9          37.26          124.5          27.47          87.25
    0.6688              -12.47          30.14          54.49          56.31         -18.05         -15.74          127.8          37.24          124.5          27.51          87.27
    0.7105              -12.48          30.12          54.47          56.31         -18.04         -15.74          127.8          37.21          124.5          27.55           87.3
    0.7523              -12.49          30.11          54.44           56.3         -18.04         -15.74          127.7          37.19          124.5          27.59          87.33
    0.7941               -12.5          30.09          54.41           56.3         -18.03         -15.74          127.6          37.16          124.5          27.64          87.36
    0.8359              -12.52          30.07          54.38          56.29         -18.02         -15.73          127.5          37.13          124.4          27.69           87.4
    0.8777              -12.53          30.04          54.35          56.29         -18.01         -15.73          127.4          37.09          124.4          27.75          87.44
    0.9195              -12.55          30.02          54.31          56.28         -18.01         -15.73          127.2          37.06          124.4          27.82          87.48
    0.9613              -12.57          29.99          54.27          56.27          -18.0         -15.73          127.1          37.01          124.3          27.89          87.53
     1.003              -12.59          29.96          54.23          56.27         -17.99         -15.72          126.9          36.97          124.3          27.97          87.58
     1.045              -12.61          29.93          54.18          56.26         -17.97         -15.72          126.8          36.92          124.2          28.06          87.64
     1.087              -12.63          29.89          54.12          56.25         -17.96         -15.71          126.6          36.86          124.2          28.16           87.7
     1.129              -12.66          29.85          54.05          56.24         -17.95         -15.71          126.3          36.79          124.1          28.28          87.78
      1.17              -12.69           29.8          53.98          56.22         -17.93          -15.7          126.1          36.72          124.1           28.4          87.86
     1.212              -12.73          29.75           53.9          56.21         -17.91          -15.7          125.8          36.63          124.0          28.55          87.96
     1.254              -12.77          29.69          53.81          56.19         -17.89         -15.69          125.5          36.54          123.9          28.71          88.07
     1.296              -12.82          29.61           53.7          56.18         -17.86         -15.68          125.1          36.43          123.8          28.91          88.19
     1.338              -12.87          29.53          53.58          56.15         -17.83         -15.67          124.7           36.3          123.7          29.13          88.34
     1.379              -12.93          29.44          53.43          56.13          -17.8         -15.66          124.2          36.15          123.6          29.38           88.5
     1.421              -13.01          29.32          53.26           56.1         -17.76         -15.65          123.6          35.98          123.4          29.68           88.7
     1.463              -13.09          29.19          53.06          56.07         -17.71         -15.63          122.9          35.78          123.2          30.03          88.93
     1.505               -13.2          29.04          52.83          56.03         -17.66         -15.61          122.1          35.54          123.0          30.45          89.21
     1.546              -13.32          28.85          52.55          55.98         -17.59         -15.59          121.2          35.25          122.8          30.95          89.54
